<svg width="19" height="22" viewBox="0 0 19 22" fill="none" xmlns="http://www.w3.org/2000/svg">
<path d="M15.3244 5.97921C15.3373 9.31556 12.8676 15.096 9.11719 15.083C5.3931 15.096 2.94889 9.27676 2.91003 5.97921C2.91003 1.40838 5.68907 0.703125 9.11719 0.703125C12.5453 0.703125 15.3244 1.40838 15.3244 5.97921Z" fill="#E7A323" fill-opacity="0.62"/>
<path d="M15.0743 5.97921L15.0744 5.98018C15.0806 7.59846 14.481 9.83429 13.416 11.6612C12.3453 13.4979 10.856 14.839 9.11805 14.833L9.11632 14.833C7.39316 14.839 5.91653 13.4904 4.84793 11.6472C3.78597 9.81535 3.17925 7.57873 3.16003 5.97773C3.16033 3.74673 3.83503 2.52184 4.86659 1.83522C5.92271 1.13225 7.407 0.953125 9.11719 0.953125C10.8274 0.953125 12.3117 1.13225 13.3678 1.83522C14.3996 2.522 15.0744 3.74727 15.0743 5.97921ZM15.3244 5.97921C15.3373 9.31556 12.8676 15.096 9.11719 15.083L2.91003 5.97921C2.91003 1.40838 5.68907 0.703125 9.11719 0.703125C12.5453 0.703125 15.3244 1.40838 15.3244 5.97921Z" stroke="#E7A323" stroke-opacity="0.1" stroke-width="0.5"/>
<path d="M8.94942 17.5886L9.00257 17.5996L9.05549 17.5875L16.5314 15.8857L17.6375 18.783C14.1424 18.824 10.7594 19.6136 7.94001 20.2717C7.10617 20.4663 6.32163 20.6495 5.59807 20.7983C3.94841 21.1376 2.65201 21.2909 1.77483 21.0533C1.34845 20.9378 1.03613 20.7335 0.825566 20.4216C0.616771 20.1122 0.490302 19.6707 0.484578 19.0449L1.59668 16.0694L8.94942 17.5886ZM16.0048 14.8411C16.2146 14.9883 16.4032 15.1648 16.5719 15.3637L9.0859 17.0678L9.16187 17.0033C10.9123 15.5161 12.3231 14.7586 13.4455 14.4825C14.5583 14.2087 15.3869 14.4074 16.0048 14.8411ZM8.8332 16.999L8.9131 17.0705L1.53048 15.5452C1.69278 15.3168 1.87666 15.1093 2.08401 14.9326C2.66983 14.4335 3.46087 14.165 4.54482 14.4016C5.64339 14.6414 7.05132 15.4029 8.8332 16.999Z" fill="white" stroke="#E7A323" stroke-width="0.5"/>
<path d="M17.5192 17.9688L0.56604 18C0.222226 20.3125 0.737876 21.125 2.45663 21.1562C5.33158 21.5 9.26907 19.3125 16.0192 18.9062C16.6555 18.868 17.4566 18.8854 17.7691 18.875L17.5192 17.9688Z" fill="#E7A323" stroke="#E7A323" stroke-width="0.5"/>
<path d="M0.726562 18.0625L1.47656 15.8125L9.00781 17.3438L16.7266 15.625L17.5078 18.0312L0.726562 18.0625Z" fill="#00FFCE"/>
<ellipse cx="9.11719" cy="17.2266" rx="0.484375" ry="0.226562" fill="#00FFCE"/>
</svg>
