<svg width="20" height="20" viewBox="0 0 20 20" fill="none" xmlns="http://www.w3.org/2000/svg">
<g clip-path="url(#clip0_186_2)">
<path d="M15.9566 6.05951C15.969 9.28073 13.599 13.8962 9.99996 13.8837C6.42618 13.8962 4.08062 9.24327 4.04333 6.05951C4.04333 1.64641 6.71021 0 9.99996 0C13.2897 0 15.9566 1.64641 15.9566 6.05951Z" fill="#E7A323" fill-opacity="0.62"/>
<path d="M15.7167 6.05951L15.7167 6.06043C15.7227 7.61997 15.1493 9.53281 14.1332 11.0508C13.1161 12.5702 11.6885 13.6497 10.0008 13.6438L9.99913 13.6438C8.32571 13.6496 6.91028 12.5628 5.8952 11.0373C4.88182 9.51432 4.30165 7.60064 4.28324 6.0581C4.28353 3.90222 4.93335 2.46028 5.94785 1.55374C6.9675 0.642582 8.39153 0.239909 9.99996 0.239909C11.6084 0.239909 13.0324 0.642582 14.0521 1.55374C15.0668 2.46048 15.7167 3.90285 15.7167 6.05951Z" stroke="#E7A323" stroke-opacity="0.1" stroke-width="0.479819"/>
<path d="M9.83872 16.3012L9.89002 16.3118L9.9411 16.3001L17.1146 14.6572L18.1772 17.4573C14.8227 17.4968 11.5757 18.2593 8.86992 18.8947C8.06976 19.0826 7.31693 19.2594 6.62263 19.4031C5.03951 19.7307 3.79577 19.8786 2.95434 19.6493C2.54548 19.5379 2.24569 19.3408 2.04341 19.0392C1.84271 18.7401 1.72124 18.3131 1.71581 17.7082L2.78335 14.8346L9.83872 16.3012ZM16.6091 13.6484C16.8113 13.7912 16.993 13.9625 17.1555 14.1556L9.96591 15.8022L10.0434 15.7359C11.7232 14.3001 13.077 13.5688 14.1539 13.3023C15.2215 13.0381 16.0162 13.2298 16.6091 13.6484ZM9.72694 15.7318L9.80778 15.8047L2.7181 14.3309C2.87434 14.1094 3.05144 13.908 3.25123 13.7368C3.81343 13.2549 4.5722 12.9958 5.61189 13.2242C6.66585 13.4556 8.01689 14.1908 9.72694 15.7318Z" fill="white" stroke="#E7A323" stroke-width="0.479819"/>
<path d="M18.063 16.6698L1.79404 16.7C1.4641 18.9327 1.95894 19.7171 3.60832 19.7473C6.36723 20.0792 10.1458 17.9672 16.6235 17.5749C17.2341 17.538 18.0028 17.5548 18.3027 17.5448L18.063 16.6698Z" fill="#E7A323" stroke="#E7A323" stroke-width="0.479819"/>
<path d="M1.948 16.7601L2.66773 14.5878L9.89501 16.0662L17.3022 14.4067L18.0519 16.7299L1.948 16.7601Z" fill="#00FFCE"/>
<ellipse cx="9.99998" cy="15.9531" rx="0.464825" ry="0.218744" fill="#00FFCE"/>
</g>
<defs>
<clipPath id="clip0_186_2">
<rect width="20" height="20" fill="white"/>
</clipPath>
</defs>
</svg>
