<svg width="140" height="140" viewBox="0 0 140 140" fill="none" xmlns="http://www.w3.org/2000/svg">
<g clip-path="url(#clip0_49_2)">
<circle cx="69.9999" cy="70" r="69" stroke="#E7A323" stroke-width="2" stroke-linecap="round" stroke-linejoin="round" stroke-dasharray="50 0"/>
<circle cx="70" cy="71" r="44" stroke="#E7A323" stroke-width="2" stroke-linecap="round" stroke-dasharray="24 24"/>
<circle cx="70" cy="71" r="18" stroke="#E7A323" stroke-width="4"/>
<path d="M70 138.98L66.0902 138.198C66.245 137.565 66.5897 137.108 67.0507 136.775C67.7298 136.283 68.7495 136 70 136C71.2505 136 72.2702 136.283 72.9493 136.775C73.4103 137.108 73.755 137.565 73.9098 138.198L70 138.98Z" stroke="#E7A323" stroke-width="2"/>
<path d="M138.98 70L138.198 73.9098C137.565 73.755 137.108 73.4103 136.775 72.9493C136.283 72.2702 136 71.2505 136 70C136 68.7495 136.283 67.7298 136.775 67.0507C137.108 66.5897 137.565 66.245 138.198 66.0902L138.98 70Z" stroke="#E7A323" stroke-width="2"/>
<path d="M70 5C75 0.99995 70 5 75 1L65 1L70 5Z" fill="#E7A323"/>
<path d="M1.0198 70L1.80176 66.0902C2.43535 66.245 2.89175 66.5897 3.22542 67.0507C3.71683 67.7298 4 68.7495 4 70C4 71.2505 3.71683 72.2702 3.22542 72.9493C2.89175 73.4103 2.43535 73.755 1.80176 73.9098L1.0198 70Z" stroke="#E7A323" stroke-width="2"/>
</g>
<defs>
<clipPath id="clip0_49_2">
<rect width="140" height="140" fill="white"/>
</clipPath>
</defs>
</svg>
